<svg width="16" height="16" viewBox="0 0 16 16" fill="none" xmlns="http://www.w3.org/2000/svg">
<path d="M5.46375 3.01384L5.71363 2.58076M5.46375 3.01384L6.45006 1.34043M5.46375 3.01384L6.42855 1.30816M5.71363 2.58076C5.71586 2.58204 5.71839 2.58283 5.71839 2.58283L5.72189 2.58327C5.72499 2.58327 5.72842 2.58238 5.73122 2.5808L5.73423 2.57856C5.73423 2.57856 5.73597 2.57669 5.73715 2.57465L6.45006 1.34043M5.71363 2.58076C5.70543 2.57602 5.70284 2.56569 5.70758 2.55749L5.81014 2.37977L6.42855 1.30816M6.45006 1.34043C6.45246 1.33625 6.45295 1.3315 6.45187 1.32749C6.45065 1.32294 6.44775 1.31925 6.44387 1.31701L6.42855 1.30816M6.45006 1.34043L6.42855 1.30816M0.948975 10.7414C0.946309 10.7423 0.943222 10.7425 0.943222 10.7425C0.940292 10.7425 0.936444 10.7415 0.933004 10.7392L0.929611 10.736C0.929611 10.736 0.928 10.7338 0.927067 10.7312C0.501996 9.56593 0.391521 8.30058 0.60825 7.07261C1.05579 4.53389 2.85691 2.45527 5.23776 1.61233L6.25996 1.25041L5.32097 0.708031L5.19209 0.633587C5.18403 0.62893 5.18112 0.618505 5.1859 0.610226C5.19063 0.602106 5.20101 0.599235 5.2094 0.604077L6.33318 1.25308L5.20729 1.65956C2.85942 2.50722 1.08529 4.56368 0.641885 7.07853C0.426344 8.30006 0.535834 9.55896 0.959263 10.7195M0.948975 10.7414C0.948975 10.7414 0.962448 10.7282 0.959263 10.7195M0.948975 10.7414L0.959263 10.7195" stroke="#F2994A"/>
<path d="M2.1725 14.2988C2.16296 14.2988 2.15538 14.291 2.15539 14.2817L2.15589 12.9734L3.11472 13.7603C4.0471 14.5254 5.16776 15.0464 6.36955 15.2584C8.84531 15.6953 11.3867 14.7698 13.0057 12.8439C13.0117 12.8368 13.0224 12.8357 13.0298 12.8419C13.0323 12.844 13.034 12.847 13.034 12.847C13.034 12.847 13.0356 12.8508 13.0358 12.8535C13.0361 12.8562 13.0352 12.8603 13.0352 12.8603C13.0352 12.8603 13.034 12.8634 13.0319 12.8659C11.6723 14.4832 9.66228 15.399 7.58638 15.399C7.17982 15.399 6.77086 15.3638 6.36365 15.292C5.1225 15.0731 3.96574 14.526 3.0125 13.72L2.19009 13.0247L2.18968 14.1017L2.18961 14.2817M2.1725 14.2988C2.18188 14.2988 2.18958 14.2912 2.18961 14.2817M2.1725 14.2988L2.18961 14.2817M2.15863 12.8284L2.15788 12.836L2.15626 12.8526M2.15626 12.8526L2.15625 12.8618M2.15626 12.8526C2.15657 12.8495 2.15822 12.8456 2.15822 12.8456C2.15822 12.8456 2.15984 12.843 2.1621 12.8411C2.16452 12.839 2.16759 12.8379 2.16759 12.8379C2.16759 12.8379 2.17173 12.837 2.17457 12.8373L2.19803 12.8395H2.22159H3.59828C3.60775 12.8395 3.61539 12.8472 3.61539 12.8566C3.61539 12.8661 3.60775 12.8738 3.59828 12.8738H3.43191H2.15593V12.8692C2.15602 12.8669 2.15618 12.8644 2.15625 12.8618M2.15626 12.8526L2.15591 12.8564L2.15625 12.8618M2.15625 12.8618L2.15526 12.8628L2.15381 12.8729" stroke="#F2994A"/>
<path d="M14.2439 10.8122C14.2395 10.811 14.2358 10.8081 14.2335 10.8041L13.5209 9.56954C13.5161 9.56117 13.5191 9.55075 13.5271 9.54612C13.5299 9.5445 13.5333 9.54381 13.5333 9.54381C13.5333 9.54381 13.5375 9.54366 13.5401 9.54437C13.5427 9.54507 13.5463 9.54731 13.5463 9.54731C13.5463 9.54731 13.5489 9.54957 13.5506 9.55243L13.6264 9.68369L14.2721 10.8017L14.2569 10.8105C14.2543 10.812 14.2513 10.8128 14.2484 10.8128L14.2439 10.8122ZM15.4977 10.0742C15.5024 10.0823 15.4997 10.093 15.4914 10.0978L14.3344 10.7658L14.5519 9.51963C14.8754 7.66667 14.4593 5.79552 13.3802 4.25441C12.2989 2.71012 10.6786 1.67805 8.8222 1.35098C8.81296 1.34935 8.80673 1.34047 8.80837 1.33117C8.80994 1.32222 8.81867 1.31557 8.82826 1.31725C10.6955 1.64624 12.3205 2.68142 13.4081 4.23469C14.4958 5.78799 14.9129 7.66923 14.5836 9.53692C14.5803 9.55589 14.5783 9.5655 14.5755 9.57827C14.5729 9.5907 14.5695 9.60666 14.5633 9.63872L14.3565 10.7133L15.3043 10.1662L15.4744 10.0681C15.4771 10.0665 15.4806 10.0658 15.4806 10.0658C15.4806 10.0658 15.4848 10.0656 15.4874 10.0663C15.49 10.067 15.4936 10.0692 15.4936 10.0692C15.4936 10.0692 15.4961 10.0714 15.4977 10.0742Z" stroke="#F2994A"/>
</svg>
